<svg id="visual" viewBox="0 0 1400 500" width="1400" height="500" xmlns="http://www.w3.org/2000/svg" xmlns:xlink="http://www.w3.org/1999/xlink" version="1.1"><rect x="0" y="0" width="1400" height="500" fill="#fff1e5"></rect><path d="M585 0L598.2 16.7C611.3 33.3 637.7 66.7 656 100C674.3 133.3 684.7 166.7 658.2 200C631.7 233.3 568.3 266.7 533.8 300C499.3 333.3 493.7 366.7 495.2 400C496.7 433.3 505.3 466.7 509.7 483.3L514 500L0 500L0 483.3C0 466.7 0 433.3 0 400C0 366.7 0 333.3 0 300C0 266.7 0 233.3 0 200C0 166.7 0 133.3 0 100C0 66.7 0 33.3 0 16.7L0 0Z" fill="#F7770F" stroke-linecap="round" stroke-linejoin="miter"></path></svg>